<mxfile host="app.diagrams.net" modified="2022-04-05T07:52:47.219Z" agent="5.0 (Windows NT 10.0; Win64; x64) AppleWebKit/537.36 (KHTML, like Gecko) Chrome/99.0.4844.84 Safari/537.36" etag="Aq9byAyoB6HXjsDtA0UE" version="17.4.0" type="github">
  <diagram id="ctOtF9lcY0yN5lrmEjxv" name="Page-1">
    <mxGraphModel dx="1547" dy="846" grid="1" gridSize="10" guides="1" tooltips="1" connect="1" arrows="1" fold="1" page="1" pageScale="1" pageWidth="827" pageHeight="1169" math="0" shadow="0">
      <root>
        <mxCell id="0" />
        <mxCell id="1" parent="0" />
        <mxCell id="FLotkWuk7ucuHg5xgiFy-1" value="BOSS直聘" style="shape=process;whiteSpace=wrap;html=1;backgroundOutline=1;" vertex="1" parent="1">
          <mxGeometry x="70" y="70" width="120" height="60" as="geometry" />
        </mxCell>
        <mxCell id="FLotkWuk7ucuHg5xgiFy-4" value="" style="edgeStyle=orthogonalEdgeStyle;rounded=0;orthogonalLoop=1;jettySize=auto;html=1;" edge="1" parent="1" source="FLotkWuk7ucuHg5xgiFy-2" target="FLotkWuk7ucuHg5xgiFy-3">
          <mxGeometry relative="1" as="geometry" />
        </mxCell>
        <mxCell id="FLotkWuk7ucuHg5xgiFy-2" value="开始/登录" style="ellipse;whiteSpace=wrap;html=1;" vertex="1" parent="1">
          <mxGeometry x="70" y="160" width="120" height="60" as="geometry" />
        </mxCell>
        <mxCell id="FLotkWuk7ucuHg5xgiFy-6" value="" style="edgeStyle=orthogonalEdgeStyle;rounded=0;orthogonalLoop=1;jettySize=auto;html=1;" edge="1" parent="1" source="FLotkWuk7ucuHg5xgiFy-3" target="FLotkWuk7ucuHg5xgiFy-5">
          <mxGeometry relative="1" as="geometry" />
        </mxCell>
        <mxCell id="FLotkWuk7ucuHg5xgiFy-3" value="我的" style="whiteSpace=wrap;html=1;" vertex="1" parent="1">
          <mxGeometry x="75" y="250" width="110" height="40" as="geometry" />
        </mxCell>
        <mxCell id="FLotkWuk7ucuHg5xgiFy-8" value="" style="edgeStyle=orthogonalEdgeStyle;rounded=0;orthogonalLoop=1;jettySize=auto;html=1;" edge="1" parent="1" source="FLotkWuk7ucuHg5xgiFy-5" target="FLotkWuk7ucuHg5xgiFy-7">
          <mxGeometry relative="1" as="geometry" />
        </mxCell>
        <mxCell id="FLotkWuk7ucuHg5xgiFy-5" value="在线简历" style="whiteSpace=wrap;html=1;" vertex="1" parent="1">
          <mxGeometry x="75" y="330" width="110" height="40" as="geometry" />
        </mxCell>
        <mxCell id="FLotkWuk7ucuHg5xgiFy-10" value="" style="edgeStyle=orthogonalEdgeStyle;rounded=0;orthogonalLoop=1;jettySize=auto;html=1;" edge="1" parent="1" source="FLotkWuk7ucuHg5xgiFy-7" target="FLotkWuk7ucuHg5xgiFy-9">
          <mxGeometry relative="1" as="geometry" />
        </mxCell>
        <mxCell id="FLotkWuk7ucuHg5xgiFy-7" value="完善在线简历" style="whiteSpace=wrap;html=1;" vertex="1" parent="1">
          <mxGeometry x="75" y="400" width="110" height="40" as="geometry" />
        </mxCell>
        <mxCell id="FLotkWuk7ucuHg5xgiFy-12" value="" style="edgeStyle=orthogonalEdgeStyle;rounded=0;orthogonalLoop=1;jettySize=auto;html=1;" edge="1" parent="1" source="FLotkWuk7ucuHg5xgiFy-9" target="FLotkWuk7ucuHg5xgiFy-11">
          <mxGeometry relative="1" as="geometry" />
        </mxCell>
        <mxCell id="FLotkWuk7ucuHg5xgiFy-9" value="生成附件简历" style="whiteSpace=wrap;html=1;" vertex="1" parent="1">
          <mxGeometry x="75" y="470" width="110" height="40" as="geometry" />
        </mxCell>
        <mxCell id="FLotkWuk7ucuHg5xgiFy-14" style="edgeStyle=orthogonalEdgeStyle;rounded=0;orthogonalLoop=1;jettySize=auto;html=1;exitX=0.5;exitY=1;exitDx=0;exitDy=0;" edge="1" parent="1" source="FLotkWuk7ucuHg5xgiFy-11" target="FLotkWuk7ucuHg5xgiFy-13">
          <mxGeometry relative="1" as="geometry" />
        </mxCell>
        <mxCell id="FLotkWuk7ucuHg5xgiFy-11" value="选择模板&lt;br&gt;（部分付费）" style="whiteSpace=wrap;html=1;" vertex="1" parent="1">
          <mxGeometry x="75" y="545" width="110" height="45" as="geometry" />
        </mxCell>
        <mxCell id="FLotkWuk7ucuHg5xgiFy-16" value="" style="edgeStyle=orthogonalEdgeStyle;rounded=0;orthogonalLoop=1;jettySize=auto;html=1;" edge="1" parent="1" source="FLotkWuk7ucuHg5xgiFy-13" target="FLotkWuk7ucuHg5xgiFy-15">
          <mxGeometry relative="1" as="geometry" />
        </mxCell>
        <mxCell id="FLotkWuk7ucuHg5xgiFy-13" value="使用模板" style="whiteSpace=wrap;html=1;" vertex="1" parent="1">
          <mxGeometry x="75" y="630" width="110" height="40" as="geometry" />
        </mxCell>
        <mxCell id="FLotkWuk7ucuHg5xgiFy-18" value="" style="edgeStyle=orthogonalEdgeStyle;rounded=0;orthogonalLoop=1;jettySize=auto;html=1;" edge="1" parent="1" source="FLotkWuk7ucuHg5xgiFy-15" target="FLotkWuk7ucuHg5xgiFy-17">
          <mxGeometry relative="1" as="geometry" />
        </mxCell>
        <mxCell id="FLotkWuk7ucuHg5xgiFy-15" value="填写接受邮箱" style="whiteSpace=wrap;html=1;" vertex="1" parent="1">
          <mxGeometry x="75" y="710" width="110" height="40" as="geometry" />
        </mxCell>
        <mxCell id="FLotkWuk7ucuHg5xgiFy-22" style="edgeStyle=orthogonalEdgeStyle;rounded=0;orthogonalLoop=1;jettySize=auto;html=1;exitX=0.5;exitY=1;exitDx=0;exitDy=0;entryX=0.5;entryY=0;entryDx=0;entryDy=0;" edge="1" parent="1" source="FLotkWuk7ucuHg5xgiFy-17" target="FLotkWuk7ucuHg5xgiFy-21">
          <mxGeometry relative="1" as="geometry" />
        </mxCell>
        <mxCell id="FLotkWuk7ucuHg5xgiFy-17" value="发送至邮箱" style="whiteSpace=wrap;html=1;" vertex="1" parent="1">
          <mxGeometry x="75" y="790" width="110" height="40" as="geometry" />
        </mxCell>
        <mxCell id="FLotkWuk7ucuHg5xgiFy-21" value="结束" style="ellipse;whiteSpace=wrap;html=1;" vertex="1" parent="1">
          <mxGeometry x="70" y="870" width="120" height="60" as="geometry" />
        </mxCell>
        <mxCell id="FLotkWuk7ucuHg5xgiFy-23" value="超级简历" style="shape=process;whiteSpace=wrap;html=1;backgroundOutline=1;" vertex="1" parent="1">
          <mxGeometry x="350" y="70" width="120" height="60" as="geometry" />
        </mxCell>
        <mxCell id="FLotkWuk7ucuHg5xgiFy-24" value="" style="edgeStyle=orthogonalEdgeStyle;rounded=0;orthogonalLoop=1;jettySize=auto;html=1;" edge="1" parent="1" source="FLotkWuk7ucuHg5xgiFy-25" target="FLotkWuk7ucuHg5xgiFy-27">
          <mxGeometry relative="1" as="geometry" />
        </mxCell>
        <mxCell id="FLotkWuk7ucuHg5xgiFy-25" value="开始/登录" style="ellipse;whiteSpace=wrap;html=1;" vertex="1" parent="1">
          <mxGeometry x="350" y="160" width="120" height="60" as="geometry" />
        </mxCell>
        <mxCell id="FLotkWuk7ucuHg5xgiFy-26" value="" style="edgeStyle=orthogonalEdgeStyle;rounded=0;orthogonalLoop=1;jettySize=auto;html=1;" edge="1" parent="1" source="FLotkWuk7ucuHg5xgiFy-27" target="FLotkWuk7ucuHg5xgiFy-29">
          <mxGeometry relative="1" as="geometry" />
        </mxCell>
        <mxCell id="FLotkWuk7ucuHg5xgiFy-27" value="简历" style="whiteSpace=wrap;html=1;" vertex="1" parent="1">
          <mxGeometry x="355" y="250" width="110" height="40" as="geometry" />
        </mxCell>
        <mxCell id="FLotkWuk7ucuHg5xgiFy-28" value="" style="edgeStyle=orthogonalEdgeStyle;rounded=0;orthogonalLoop=1;jettySize=auto;html=1;" edge="1" parent="1" source="FLotkWuk7ucuHg5xgiFy-29" target="FLotkWuk7ucuHg5xgiFy-31">
          <mxGeometry relative="1" as="geometry" />
        </mxCell>
        <mxCell id="FLotkWuk7ucuHg5xgiFy-29" value="我的简历" style="whiteSpace=wrap;html=1;" vertex="1" parent="1">
          <mxGeometry x="355" y="330" width="110" height="40" as="geometry" />
        </mxCell>
        <mxCell id="FLotkWuk7ucuHg5xgiFy-64" style="edgeStyle=orthogonalEdgeStyle;rounded=0;orthogonalLoop=1;jettySize=auto;html=1;exitX=0.5;exitY=1;exitDx=0;exitDy=0;" edge="1" parent="1" source="FLotkWuk7ucuHg5xgiFy-31" target="FLotkWuk7ucuHg5xgiFy-35">
          <mxGeometry relative="1" as="geometry" />
        </mxCell>
        <mxCell id="FLotkWuk7ucuHg5xgiFy-31" value="新建/导入简历" style="whiteSpace=wrap;html=1;" vertex="1" parent="1">
          <mxGeometry x="355" y="400" width="110" height="40" as="geometry" />
        </mxCell>
        <mxCell id="FLotkWuk7ucuHg5xgiFy-34" style="edgeStyle=orthogonalEdgeStyle;rounded=0;orthogonalLoop=1;jettySize=auto;html=1;exitX=0.5;exitY=1;exitDx=0;exitDy=0;" edge="1" parent="1" source="FLotkWuk7ucuHg5xgiFy-35" target="FLotkWuk7ucuHg5xgiFy-37">
          <mxGeometry relative="1" as="geometry" />
        </mxCell>
        <mxCell id="FLotkWuk7ucuHg5xgiFy-35" value="选择模板&lt;br&gt;（免费）" style="whiteSpace=wrap;html=1;" vertex="1" parent="1">
          <mxGeometry x="355" y="480" width="110" height="45" as="geometry" />
        </mxCell>
        <mxCell id="FLotkWuk7ucuHg5xgiFy-36" value="" style="edgeStyle=orthogonalEdgeStyle;rounded=0;orthogonalLoop=1;jettySize=auto;html=1;" edge="1" parent="1" source="FLotkWuk7ucuHg5xgiFy-37" target="FLotkWuk7ucuHg5xgiFy-39">
          <mxGeometry relative="1" as="geometry" />
        </mxCell>
        <mxCell id="FLotkWuk7ucuHg5xgiFy-37" value="简历预览" style="whiteSpace=wrap;html=1;" vertex="1" parent="1">
          <mxGeometry x="355" y="565" width="110" height="40" as="geometry" />
        </mxCell>
        <mxCell id="FLotkWuk7ucuHg5xgiFy-65" style="edgeStyle=orthogonalEdgeStyle;rounded=0;orthogonalLoop=1;jettySize=auto;html=1;exitX=0.5;exitY=1;exitDx=0;exitDy=0;" edge="1" parent="1" source="FLotkWuk7ucuHg5xgiFy-39" target="FLotkWuk7ucuHg5xgiFy-42">
          <mxGeometry relative="1" as="geometry" />
        </mxCell>
        <mxCell id="FLotkWuk7ucuHg5xgiFy-39" value="导出&lt;br&gt;（微信、邮箱、图片、本地）" style="whiteSpace=wrap;html=1;" vertex="1" parent="1">
          <mxGeometry x="327.5" y="650" width="165" height="45" as="geometry" />
        </mxCell>
        <mxCell id="FLotkWuk7ucuHg5xgiFy-42" value="结束" style="ellipse;whiteSpace=wrap;html=1;" vertex="1" parent="1">
          <mxGeometry x="350" y="730" width="120" height="60" as="geometry" />
        </mxCell>
        <mxCell id="FLotkWuk7ucuHg5xgiFy-43" value="BOSS直聘" style="shape=process;whiteSpace=wrap;html=1;backgroundOutline=1;" vertex="1" parent="1">
          <mxGeometry x="600" y="70" width="120" height="60" as="geometry" />
        </mxCell>
        <mxCell id="FLotkWuk7ucuHg5xgiFy-44" value="" style="edgeStyle=orthogonalEdgeStyle;rounded=0;orthogonalLoop=1;jettySize=auto;html=1;" edge="1" parent="1" source="FLotkWuk7ucuHg5xgiFy-45" target="FLotkWuk7ucuHg5xgiFy-47">
          <mxGeometry relative="1" as="geometry" />
        </mxCell>
        <mxCell id="FLotkWuk7ucuHg5xgiFy-45" value="开始/登录" style="ellipse;whiteSpace=wrap;html=1;" vertex="1" parent="1">
          <mxGeometry x="600" y="160" width="120" height="60" as="geometry" />
        </mxCell>
        <mxCell id="FLotkWuk7ucuHg5xgiFy-46" value="" style="edgeStyle=orthogonalEdgeStyle;rounded=0;orthogonalLoop=1;jettySize=auto;html=1;" edge="1" parent="1" source="FLotkWuk7ucuHg5xgiFy-47" target="FLotkWuk7ucuHg5xgiFy-49">
          <mxGeometry relative="1" as="geometry" />
        </mxCell>
        <mxCell id="FLotkWuk7ucuHg5xgiFy-47" value="我的" style="whiteSpace=wrap;html=1;" vertex="1" parent="1">
          <mxGeometry x="605" y="250" width="110" height="40" as="geometry" />
        </mxCell>
        <mxCell id="FLotkWuk7ucuHg5xgiFy-66" style="edgeStyle=orthogonalEdgeStyle;rounded=0;orthogonalLoop=1;jettySize=auto;html=1;exitX=0.5;exitY=1;exitDx=0;exitDy=0;" edge="1" parent="1" source="FLotkWuk7ucuHg5xgiFy-49" target="FLotkWuk7ucuHg5xgiFy-55">
          <mxGeometry relative="1" as="geometry" />
        </mxCell>
        <mxCell id="FLotkWuk7ucuHg5xgiFy-49" value="在线简历" style="whiteSpace=wrap;html=1;" vertex="1" parent="1">
          <mxGeometry x="605" y="330" width="110" height="40" as="geometry" />
        </mxCell>
        <mxCell id="FLotkWuk7ucuHg5xgiFy-54" style="edgeStyle=orthogonalEdgeStyle;rounded=0;orthogonalLoop=1;jettySize=auto;html=1;exitX=0.5;exitY=1;exitDx=0;exitDy=0;" edge="1" parent="1" source="FLotkWuk7ucuHg5xgiFy-55" target="FLotkWuk7ucuHg5xgiFy-57">
          <mxGeometry relative="1" as="geometry" />
        </mxCell>
        <mxCell id="FLotkWuk7ucuHg5xgiFy-55" value="使用模板优化&lt;br&gt;（全部付费）" style="whiteSpace=wrap;html=1;" vertex="1" parent="1">
          <mxGeometry x="605" y="420" width="110" height="40" as="geometry" />
        </mxCell>
        <mxCell id="FLotkWuk7ucuHg5xgiFy-56" value="" style="edgeStyle=orthogonalEdgeStyle;rounded=0;orthogonalLoop=1;jettySize=auto;html=1;" edge="1" parent="1" source="FLotkWuk7ucuHg5xgiFy-57" target="FLotkWuk7ucuHg5xgiFy-59">
          <mxGeometry relative="1" as="geometry" />
        </mxCell>
        <mxCell id="FLotkWuk7ucuHg5xgiFy-57" value="编辑" style="whiteSpace=wrap;html=1;" vertex="1" parent="1">
          <mxGeometry x="605" y="500" width="110" height="40" as="geometry" />
        </mxCell>
        <mxCell id="FLotkWuk7ucuHg5xgiFy-67" style="edgeStyle=orthogonalEdgeStyle;rounded=0;orthogonalLoop=1;jettySize=auto;html=1;exitX=0.5;exitY=1;exitDx=0;exitDy=0;entryX=0.5;entryY=0;entryDx=0;entryDy=0;" edge="1" parent="1" source="FLotkWuk7ucuHg5xgiFy-59" target="FLotkWuk7ucuHg5xgiFy-62">
          <mxGeometry relative="1" as="geometry" />
        </mxCell>
        <mxCell id="FLotkWuk7ucuHg5xgiFy-59" value="导出（支付）" style="whiteSpace=wrap;html=1;" vertex="1" parent="1">
          <mxGeometry x="605" y="580" width="110" height="40" as="geometry" />
        </mxCell>
        <mxCell id="FLotkWuk7ucuHg5xgiFy-62" value="结束" style="ellipse;whiteSpace=wrap;html=1;" vertex="1" parent="1">
          <mxGeometry x="600" y="650" width="120" height="60" as="geometry" />
        </mxCell>
      </root>
    </mxGraphModel>
  </diagram>
</mxfile>
